<?xml version="1.0" encoding="UTF-8"?>
<!DOCTYPE svg PUBLIC "-//W3C//DTD SVG 1.1//EN" "http://www.w3.org/Graphics/SVG/1.1/DTD/svg11.dtd">
<svg version="1.2" width="111mm" height="103mm" viewBox="0 0 11100 10300" preserveAspectRatio="xMidYMid" fill-rule="evenodd" stroke-width="28.222" stroke-linejoin="round" xmlns="http://www.w3.org/2000/svg" xmlns:ooo="http://xml.openoffice.org/svg/export" xmlns:xlink="http://www.w3.org/1999/xlink" xmlns:presentation="http://sun.com/xmlns/staroffice/presentation" xmlns:smil="http://www.w3.org/2001/SMIL20/" xmlns:anim="urn:oasis:names:tc:opendocument:xmlns:animation:1.0" xmlns:svg="urn:oasis:names:tc:opendocument:xmlns:svg-compatible:1.0" xml:space="preserve">
 <defs class="ClipPathGroup">
  <clipPath id="presentation_clip_path" clipPathUnits="userSpaceOnUse">
   <rect x="0" y="0" width="11100" height="10300"/>
  </clipPath>
  <clipPath id="presentation_clip_path_shrink" clipPathUnits="userSpaceOnUse">
   <rect x="11" y="10" width="11078" height="10280"/>
  </clipPath>
 </defs>
 <defs class="TextShapeIndex">
  <g ooo:slide="id1" ooo:id-list="id3 id4 id5 id6 id7 id8 id9 id10 id11 id12 id13 id14 id15 id16 id17 id18 id19 id20 id21 id22 id23 id24 id25 id26 id27 id28 id29 id30 id31 id32 id33 id34 id35 id36 id37 id38 id39 id40"/>
 </defs>
 <defs class="EmbeddedBulletChars">
  <g id="bullet-char-template-57356" transform="scale(0.00048828125,-0.00048828125)">
   <path d="M 580,1141 L 1163,571 580,0 -4,571 580,1141 Z"/>
  </g>
  <g id="bullet-char-template-57354" transform="scale(0.00048828125,-0.00048828125)">
   <path d="M 8,1128 L 1137,1128 1137,0 8,0 8,1128 Z"/>
  </g>
  <g id="bullet-char-template-10146" transform="scale(0.00048828125,-0.00048828125)">
   <path d="M 174,0 L 602,739 174,1481 1456,739 174,0 Z M 1358,739 L 309,1346 659,739 1358,739 Z"/>
  </g>
  <g id="bullet-char-template-10132" transform="scale(0.00048828125,-0.00048828125)">
   <path d="M 2015,739 L 1276,0 717,0 1260,543 174,543 174,936 1260,936 717,1481 1274,1481 2015,739 Z"/>
  </g>
  <g id="bullet-char-template-10007" transform="scale(0.00048828125,-0.00048828125)">
   <path d="M 0,-2 C -7,14 -16,27 -25,37 L 356,567 C 262,823 215,952 215,954 215,979 228,992 255,992 264,992 276,990 289,987 310,991 331,999 354,1012 L 381,999 492,748 772,1049 836,1024 860,1049 C 881,1039 901,1025 922,1006 886,937 835,863 770,784 769,783 710,716 594,584 L 774,223 C 774,196 753,168 711,139 L 727,119 C 717,90 699,76 672,76 641,76 570,178 457,381 L 164,-76 C 142,-110 111,-127 72,-127 30,-127 9,-110 8,-76 1,-67 -2,-52 -2,-32 -2,-23 -1,-13 0,-2 Z"/>
  </g>
  <g id="bullet-char-template-10004" transform="scale(0.00048828125,-0.00048828125)">
   <path d="M 285,-33 C 182,-33 111,30 74,156 52,228 41,333 41,471 41,549 55,616 82,672 116,743 169,778 240,778 293,778 328,747 346,684 L 369,508 C 377,444 397,411 428,410 L 1163,1116 C 1174,1127 1196,1133 1229,1133 1271,1133 1292,1118 1292,1087 L 1292,965 C 1292,929 1282,901 1262,881 L 442,47 C 390,-6 338,-33 285,-33 Z"/>
  </g>
  <g id="bullet-char-template-9679" transform="scale(0.00048828125,-0.00048828125)">
   <path d="M 813,0 C 632,0 489,54 383,161 276,268 223,411 223,592 223,773 276,916 383,1023 489,1130 632,1184 813,1184 992,1184 1136,1130 1245,1023 1353,916 1407,772 1407,592 1407,412 1353,268 1245,161 1136,54 992,0 813,0 Z"/>
  </g>
  <g id="bullet-char-template-8226" transform="scale(0.00048828125,-0.00048828125)">
   <path d="M 346,457 C 273,457 209,483 155,535 101,586 74,649 74,723 74,796 101,859 155,911 209,963 273,989 346,989 419,989 480,963 531,910 582,859 608,796 608,723 608,648 583,586 532,535 482,483 420,457 346,457 Z"/>
  </g>
  <g id="bullet-char-template-8211" transform="scale(0.00048828125,-0.00048828125)">
   <path d="M -4,459 L 1135,459 1135,606 -4,606 -4,459 Z"/>
  </g>
  <g id="bullet-char-template-61548" transform="scale(0.00048828125,-0.00048828125)">
   <path d="M 173,740 C 173,903 231,1043 346,1159 462,1274 601,1332 765,1332 928,1332 1067,1274 1183,1159 1299,1043 1357,903 1357,740 1357,577 1299,437 1183,322 1067,206 928,148 765,148 601,148 462,206 346,322 231,437 173,577 173,740 Z"/>
  </g>
 </defs>
 <g>
  <g id="id2" class="Master_Slide">
   <g id="bg-id2" class="Background"/>
   <g id="bo-id2" class="BackgroundObjects"/>
  </g>
 </g>
 <g class="SlideGroup">
  <g>
   <g id="container-id1">
    <g id="id1" class="Slide" clip-path="url(#presentation_clip_path)">
     <g class="Page">
      <g class="com.sun.star.drawing.CustomShape">
       <g id="id3">
        <rect class="BoundingBox" stroke="none" fill="none" x="2292" y="1009" width="1083" height="1083"/>
        <path fill="rgb(15,70,255)" stroke="none" d="M 2833,2050 L 2333,2050 2333,1050 3333,1050 3333,2050 2833,2050 Z"/>
        <path fill="none" stroke="rgb(128,128,128)" stroke-width="81" stroke-linejoin="round" d="M 2833,2050 L 2333,2050 2333,1050 3333,1050 3333,2050 2833,2050 Z"/>
       </g>
      </g>
      <g class="com.sun.star.drawing.CustomShape">
       <g id="id4">
        <rect class="BoundingBox" stroke="none" fill="none" x="1992" y="2209" width="1083" height="1083"/>
        <path fill="rgb(15,70,255)" stroke="none" d="M 2533,3250 L 2033,3250 2033,2250 3033,2250 3033,3250 2533,3250 Z"/>
        <path fill="none" stroke="rgb(128,128,128)" stroke-width="81" stroke-linejoin="round" d="M 2533,3250 L 2033,3250 2033,2250 3033,2250 3033,3250 2533,3250 Z"/>
       </g>
      </g>
      <g class="com.sun.star.drawing.CustomShape">
       <g id="id5">
        <rect class="BoundingBox" stroke="none" fill="none" x="1992" y="3209" width="1083" height="1083"/>
        <path fill="rgb(15,70,255)" stroke="none" d="M 2533,4250 L 2033,4250 2033,3250 3033,3250 3033,4250 2533,4250 Z"/>
        <path fill="none" stroke="rgb(128,128,128)" stroke-width="81" stroke-linejoin="round" d="M 2533,4250 L 2033,4250 2033,3250 3033,3250 3033,4250 2533,4250 Z"/>
       </g>
      </g>
      <g class="com.sun.star.drawing.CustomShape">
       <g id="id6">
        <rect class="BoundingBox" stroke="none" fill="none" x="1992" y="4209" width="1083" height="1083"/>
        <path fill="rgb(15,70,255)" stroke="none" d="M 2533,5250 L 2033,5250 2033,4250 3033,4250 3033,5250 2533,5250 Z"/>
        <path fill="none" stroke="rgb(128,128,128)" stroke-width="81" stroke-linejoin="round" d="M 2533,5250 L 2033,5250 2033,4250 3033,4250 3033,5250 2533,5250 Z"/>
       </g>
      </g>
      <g class="com.sun.star.drawing.CustomShape">
       <g id="id7">
        <rect class="BoundingBox" stroke="none" fill="none" x="2292" y="1009" width="1083" height="1083"/>
        <path fill="rgb(15,70,255)" stroke="none" d="M 2833,2050 L 2333,2050 2333,1050 3333,1050 3333,2050 2833,2050 Z"/>
        <path fill="none" stroke="rgb(128,128,128)" stroke-width="81" stroke-linejoin="round" d="M 2833,2050 L 2333,2050 2333,1050 3333,1050 3333,2050 2833,2050 Z"/>
       </g>
      </g>
      <g class="com.sun.star.drawing.CustomShape">
       <g id="id8">
        <rect class="BoundingBox" stroke="none" fill="none" x="1992" y="5209" width="1083" height="1083"/>
        <path fill="rgb(15,70,255)" stroke="none" d="M 2533,6250 L 2033,6250 2033,5250 3033,5250 3033,6250 2533,6250 Z"/>
        <path fill="none" stroke="rgb(128,128,128)" stroke-width="81" stroke-linejoin="round" d="M 2533,6250 L 2033,6250 2033,5250 3033,5250 3033,6250 2533,6250 Z"/>
       </g>
      </g>
      <g class="com.sun.star.drawing.CustomShape">
       <g id="id9">
        <rect class="BoundingBox" stroke="none" fill="none" x="1992" y="6209" width="1083" height="1083"/>
        <path fill="rgb(15,70,255)" stroke="none" d="M 2533,7250 L 2033,7250 2033,6250 3033,6250 3033,7250 2533,7250 Z"/>
        <path fill="none" stroke="rgb(128,128,128)" stroke-width="81" stroke-linejoin="round" d="M 2533,7250 L 2033,7250 2033,6250 3033,6250 3033,7250 2533,7250 Z"/>
       </g>
      </g>
      <g class="com.sun.star.drawing.CustomShape">
       <g id="id10">
        <rect class="BoundingBox" stroke="none" fill="none" x="1992" y="7209" width="1083" height="1083"/>
        <path fill="rgb(15,70,255)" stroke="none" d="M 2533,8250 L 2033,8250 2033,7250 3033,7250 3033,8250 2533,8250 Z"/>
        <path fill="none" stroke="rgb(128,128,128)" stroke-width="81" stroke-linejoin="round" d="M 2533,8250 L 2033,8250 2033,7250 3033,7250 3033,8250 2533,8250 Z"/>
       </g>
      </g>
      <g class="com.sun.star.drawing.CustomShape">
       <g id="id11">
        <rect class="BoundingBox" stroke="none" fill="none" x="1992" y="8209" width="1083" height="1083"/>
        <path fill="rgb(15,70,255)" stroke="none" d="M 2533,9250 L 2033,9250 2033,8250 3033,8250 3033,9250 2533,9250 Z"/>
        <path fill="none" stroke="rgb(128,128,128)" stroke-width="81" stroke-linejoin="round" d="M 2533,9250 L 2033,9250 2033,8250 3033,8250 3033,9250 2533,9250 Z"/>
       </g>
      </g>
      <g class="com.sun.star.drawing.CustomShape">
       <g id="id12">
        <rect class="BoundingBox" stroke="none" fill="none" x="4292" y="1009" width="1083" height="1083"/>
        <path fill="rgb(0,169,51)" stroke="none" d="M 4833,2050 L 4333,2050 4333,1050 5333,1050 5333,2050 4833,2050 Z"/>
        <path fill="none" stroke="rgb(128,128,128)" stroke-width="81" stroke-linejoin="round" d="M 4833,2050 L 4333,2050 4333,1050 5333,1050 5333,2050 4833,2050 Z"/>
       </g>
      </g>
      <g class="com.sun.star.drawing.CustomShape">
       <g id="id13">
        <rect class="BoundingBox" stroke="none" fill="none" x="3992" y="2209" width="1083" height="1083"/>
        <path fill="rgb(0,169,51)" stroke="none" d="M 4533,3250 L 4033,3250 4033,2250 5033,2250 5033,3250 4533,3250 Z"/>
        <path fill="none" stroke="rgb(128,128,128)" stroke-width="81" stroke-linejoin="round" d="M 4533,3250 L 4033,3250 4033,2250 5033,2250 5033,3250 4533,3250 Z"/>
       </g>
      </g>
      <g class="com.sun.star.drawing.CustomShape">
       <g id="id14">
        <rect class="BoundingBox" stroke="none" fill="none" x="3992" y="3209" width="1083" height="1083"/>
        <path fill="rgb(0,169,51)" stroke="none" d="M 4533,4250 L 4033,4250 4033,3250 5033,3250 5033,4250 4533,4250 Z"/>
        <path fill="none" stroke="rgb(128,128,128)" stroke-width="81" stroke-linejoin="round" d="M 4533,4250 L 4033,4250 4033,3250 5033,3250 5033,4250 4533,4250 Z"/>
       </g>
      </g>
      <g class="com.sun.star.drawing.CustomShape">
       <g id="id15">
        <rect class="BoundingBox" stroke="none" fill="none" x="3992" y="4209" width="1083" height="1083"/>
        <path fill="rgb(0,169,51)" stroke="none" d="M 4533,5250 L 4033,5250 4033,4250 5033,4250 5033,5250 4533,5250 Z"/>
        <path fill="none" stroke="rgb(128,128,128)" stroke-width="81" stroke-linejoin="round" d="M 4533,5250 L 4033,5250 4033,4250 5033,4250 5033,5250 4533,5250 Z"/>
       </g>
      </g>
      <g class="com.sun.star.drawing.CustomShape">
       <g id="id16">
        <rect class="BoundingBox" stroke="none" fill="none" x="4292" y="1009" width="1083" height="1083"/>
        <path fill="rgb(0,169,51)" stroke="none" d="M 4833,2050 L 4333,2050 4333,1050 5333,1050 5333,2050 4833,2050 Z"/>
        <path fill="none" stroke="rgb(128,128,128)" stroke-width="81" stroke-linejoin="round" d="M 4833,2050 L 4333,2050 4333,1050 5333,1050 5333,2050 4833,2050 Z"/>
       </g>
      </g>
      <g class="com.sun.star.drawing.CustomShape">
       <g id="id17">
        <rect class="BoundingBox" stroke="none" fill="none" x="3992" y="5209" width="1083" height="1083"/>
        <path fill="rgb(0,169,51)" stroke="none" d="M 4533,6250 L 4033,6250 4033,5250 5033,5250 5033,6250 4533,6250 Z"/>
        <path fill="none" stroke="rgb(128,128,128)" stroke-width="81" stroke-linejoin="round" d="M 4533,6250 L 4033,6250 4033,5250 5033,5250 5033,6250 4533,6250 Z"/>
       </g>
      </g>
      <g class="com.sun.star.drawing.CustomShape">
       <g id="id18">
        <rect class="BoundingBox" stroke="none" fill="none" x="3992" y="6209" width="1083" height="1083"/>
        <path fill="rgb(0,169,51)" stroke="none" d="M 4533,7250 L 4033,7250 4033,6250 5033,6250 5033,7250 4533,7250 Z"/>
        <path fill="none" stroke="rgb(128,128,128)" stroke-width="81" stroke-linejoin="round" d="M 4533,7250 L 4033,7250 4033,6250 5033,6250 5033,7250 4533,7250 Z"/>
       </g>
      </g>
      <g class="com.sun.star.drawing.CustomShape">
       <g id="id19">
        <rect class="BoundingBox" stroke="none" fill="none" x="3992" y="7209" width="1083" height="1083"/>
        <path fill="rgb(0,169,51)" stroke="none" d="M 4533,8250 L 4033,8250 4033,7250 5033,7250 5033,8250 4533,8250 Z"/>
        <path fill="none" stroke="rgb(128,128,128)" stroke-width="81" stroke-linejoin="round" d="M 4533,8250 L 4033,8250 4033,7250 5033,7250 5033,8250 4533,8250 Z"/>
       </g>
      </g>
      <g class="com.sun.star.drawing.CustomShape">
       <g id="id20">
        <rect class="BoundingBox" stroke="none" fill="none" x="3992" y="8209" width="1083" height="1083"/>
        <path fill="rgb(0,169,51)" stroke="none" d="M 4533,9250 L 4033,9250 4033,8250 5033,8250 5033,9250 4533,9250 Z"/>
        <path fill="none" stroke="rgb(128,128,128)" stroke-width="81" stroke-linejoin="round" d="M 4533,9250 L 4033,9250 4033,8250 5033,8250 5033,9250 4533,9250 Z"/>
       </g>
      </g>
      <g class="com.sun.star.drawing.CustomShape">
       <g id="id21">
        <rect class="BoundingBox" stroke="none" fill="none" x="6292" y="1009" width="1083" height="1083"/>
        <path fill="rgb(255,255,56)" stroke="none" d="M 6833,2050 L 6333,2050 6333,1050 7333,1050 7333,2050 6833,2050 Z"/>
        <path fill="none" stroke="rgb(128,128,128)" stroke-width="81" stroke-linejoin="round" d="M 6833,2050 L 6333,2050 6333,1050 7333,1050 7333,2050 6833,2050 Z"/>
       </g>
      </g>
      <g class="com.sun.star.drawing.CustomShape">
       <g id="id22">
        <rect class="BoundingBox" stroke="none" fill="none" x="5992" y="2209" width="1083" height="1083"/>
        <path fill="rgb(255,255,56)" stroke="none" d="M 6533,3250 L 6033,3250 6033,2250 7033,2250 7033,3250 6533,3250 Z"/>
        <path fill="none" stroke="rgb(128,128,128)" stroke-width="81" stroke-linejoin="round" d="M 6533,3250 L 6033,3250 6033,2250 7033,2250 7033,3250 6533,3250 Z"/>
       </g>
      </g>
      <g class="com.sun.star.drawing.CustomShape">
       <g id="id23">
        <rect class="BoundingBox" stroke="none" fill="none" x="5992" y="3209" width="1083" height="1083"/>
        <path fill="rgb(255,255,56)" stroke="none" d="M 6533,4250 L 6033,4250 6033,3250 7033,3250 7033,4250 6533,4250 Z"/>
        <path fill="none" stroke="rgb(128,128,128)" stroke-width="81" stroke-linejoin="round" d="M 6533,4250 L 6033,4250 6033,3250 7033,3250 7033,4250 6533,4250 Z"/>
       </g>
      </g>
      <g class="com.sun.star.drawing.CustomShape">
       <g id="id24">
        <rect class="BoundingBox" stroke="none" fill="none" x="5992" y="4209" width="1083" height="1083"/>
        <path fill="rgb(255,255,56)" stroke="none" d="M 6533,5250 L 6033,5250 6033,4250 7033,4250 7033,5250 6533,5250 Z"/>
        <path fill="none" stroke="rgb(128,128,128)" stroke-width="81" stroke-linejoin="round" d="M 6533,5250 L 6033,5250 6033,4250 7033,4250 7033,5250 6533,5250 Z"/>
       </g>
      </g>
      <g class="com.sun.star.drawing.CustomShape">
       <g id="id25">
        <rect class="BoundingBox" stroke="none" fill="none" x="6292" y="1009" width="1083" height="1083"/>
        <path fill="rgb(255,255,56)" stroke="none" d="M 6833,2050 L 6333,2050 6333,1050 7333,1050 7333,2050 6833,2050 Z"/>
        <path fill="none" stroke="rgb(128,128,128)" stroke-width="81" stroke-linejoin="round" d="M 6833,2050 L 6333,2050 6333,1050 7333,1050 7333,2050 6833,2050 Z"/>
       </g>
      </g>
      <g class="com.sun.star.drawing.CustomShape">
       <g id="id26">
        <rect class="BoundingBox" stroke="none" fill="none" x="5992" y="5209" width="1083" height="1083"/>
        <path fill="rgb(255,255,56)" stroke="none" d="M 6533,6250 L 6033,6250 6033,5250 7033,5250 7033,6250 6533,6250 Z"/>
        <path fill="none" stroke="rgb(128,128,128)" stroke-width="81" stroke-linejoin="round" d="M 6533,6250 L 6033,6250 6033,5250 7033,5250 7033,6250 6533,6250 Z"/>
       </g>
      </g>
      <g class="com.sun.star.drawing.CustomShape">
       <g id="id27">
        <rect class="BoundingBox" stroke="none" fill="none" x="5992" y="6209" width="1083" height="1083"/>
        <path fill="rgb(255,255,56)" stroke="none" d="M 6533,7250 L 6033,7250 6033,6250 7033,6250 7033,7250 6533,7250 Z"/>
        <path fill="none" stroke="rgb(128,128,128)" stroke-width="81" stroke-linejoin="round" d="M 6533,7250 L 6033,7250 6033,6250 7033,6250 7033,7250 6533,7250 Z"/>
       </g>
      </g>
      <g class="com.sun.star.drawing.CustomShape">
       <g id="id28">
        <rect class="BoundingBox" stroke="none" fill="none" x="5992" y="7209" width="1083" height="1083"/>
        <path fill="rgb(255,255,56)" stroke="none" d="M 6533,8250 L 6033,8250 6033,7250 7033,7250 7033,8250 6533,8250 Z"/>
        <path fill="none" stroke="rgb(128,128,128)" stroke-width="81" stroke-linejoin="round" d="M 6533,8250 L 6033,8250 6033,7250 7033,7250 7033,8250 6533,8250 Z"/>
       </g>
      </g>
      <g class="com.sun.star.drawing.CustomShape">
       <g id="id29">
        <rect class="BoundingBox" stroke="none" fill="none" x="5992" y="8209" width="1083" height="1083"/>
        <path fill="rgb(255,255,56)" stroke="none" d="M 6533,9250 L 6033,9250 6033,8250 7033,8250 7033,9250 6533,9250 Z"/>
        <path fill="none" stroke="rgb(128,128,128)" stroke-width="81" stroke-linejoin="round" d="M 6533,9250 L 6033,9250 6033,8250 7033,8250 7033,9250 6533,9250 Z"/>
       </g>
      </g>
      <g class="com.sun.star.drawing.CustomShape">
       <g id="id30">
        <rect class="BoundingBox" stroke="none" fill="none" x="8292" y="1009" width="1083" height="1083"/>
        <path fill="rgb(255,56,56)" stroke="none" d="M 8833,2050 L 8333,2050 8333,1050 9333,1050 9333,2050 8833,2050 Z"/>
        <path fill="none" stroke="rgb(128,128,128)" stroke-width="81" stroke-linejoin="round" d="M 8833,2050 L 8333,2050 8333,1050 9333,1050 9333,2050 8833,2050 Z"/>
       </g>
      </g>
      <g class="com.sun.star.drawing.CustomShape">
       <g id="id31">
        <rect class="BoundingBox" stroke="none" fill="none" x="7992" y="2209" width="1083" height="1083"/>
        <path fill="rgb(255,56,56)" stroke="none" d="M 8533,3250 L 8033,3250 8033,2250 9033,2250 9033,3250 8533,3250 Z"/>
        <path fill="none" stroke="rgb(128,128,128)" stroke-width="81" stroke-linejoin="round" d="M 8533,3250 L 8033,3250 8033,2250 9033,2250 9033,3250 8533,3250 Z"/>
       </g>
      </g>
      <g class="com.sun.star.drawing.CustomShape">
       <g id="id32">
        <rect class="BoundingBox" stroke="none" fill="none" x="7992" y="3209" width="1083" height="1083"/>
        <path fill="rgb(255,56,56)" stroke="none" d="M 8533,4250 L 8033,4250 8033,3250 9033,3250 9033,4250 8533,4250 Z"/>
        <path fill="none" stroke="rgb(128,128,128)" stroke-width="81" stroke-linejoin="round" d="M 8533,4250 L 8033,4250 8033,3250 9033,3250 9033,4250 8533,4250 Z"/>
       </g>
      </g>
      <g class="com.sun.star.drawing.CustomShape">
       <g id="id33">
        <rect class="BoundingBox" stroke="none" fill="none" x="7992" y="4209" width="1083" height="1083"/>
        <path fill="rgb(255,56,56)" stroke="none" d="M 8533,5250 L 8033,5250 8033,4250 9033,4250 9033,5250 8533,5250 Z"/>
        <path fill="none" stroke="rgb(128,128,128)" stroke-width="81" stroke-linejoin="round" d="M 8533,5250 L 8033,5250 8033,4250 9033,4250 9033,5250 8533,5250 Z"/>
       </g>
      </g>
      <g class="com.sun.star.drawing.CustomShape">
       <g id="id34">
        <rect class="BoundingBox" stroke="none" fill="none" x="8292" y="1009" width="1083" height="1083"/>
        <path fill="rgb(255,56,56)" stroke="none" d="M 8833,2050 L 8333,2050 8333,1050 9333,1050 9333,2050 8833,2050 Z"/>
        <path fill="none" stroke="rgb(128,128,128)" stroke-width="81" stroke-linejoin="round" d="M 8833,2050 L 8333,2050 8333,1050 9333,1050 9333,2050 8833,2050 Z"/>
       </g>
      </g>
      <g class="com.sun.star.drawing.CustomShape">
       <g id="id35">
        <rect class="BoundingBox" stroke="none" fill="none" x="7992" y="5209" width="1083" height="1083"/>
        <path fill="rgb(255,56,56)" stroke="none" d="M 8533,6250 L 8033,6250 8033,5250 9033,5250 9033,6250 8533,6250 Z"/>
        <path fill="none" stroke="rgb(128,128,128)" stroke-width="81" stroke-linejoin="round" d="M 8533,6250 L 8033,6250 8033,5250 9033,5250 9033,6250 8533,6250 Z"/>
       </g>
      </g>
      <g class="com.sun.star.drawing.CustomShape">
       <g id="id36">
        <rect class="BoundingBox" stroke="none" fill="none" x="7992" y="6209" width="1083" height="1083"/>
        <path fill="rgb(255,56,56)" stroke="none" d="M 8533,7250 L 8033,7250 8033,6250 9033,6250 9033,7250 8533,7250 Z"/>
        <path fill="none" stroke="rgb(128,128,128)" stroke-width="81" stroke-linejoin="round" d="M 8533,7250 L 8033,7250 8033,6250 9033,6250 9033,7250 8533,7250 Z"/>
       </g>
      </g>
      <g class="com.sun.star.drawing.CustomShape">
       <g id="id37">
        <rect class="BoundingBox" stroke="none" fill="none" x="7992" y="7209" width="1083" height="1083"/>
        <path fill="rgb(255,56,56)" stroke="none" d="M 8533,8250 L 8033,8250 8033,7250 9033,7250 9033,8250 8533,8250 Z"/>
        <path fill="none" stroke="rgb(128,128,128)" stroke-width="81" stroke-linejoin="round" d="M 8533,8250 L 8033,8250 8033,7250 9033,7250 9033,8250 8533,8250 Z"/>
       </g>
      </g>
      <g class="com.sun.star.drawing.CustomShape">
       <g id="id38">
        <rect class="BoundingBox" stroke="none" fill="none" x="7992" y="8209" width="1083" height="1083"/>
        <path fill="rgb(255,56,56)" stroke="none" d="M 8533,9250 L 8033,9250 8033,8250 9033,8250 9033,9250 8533,9250 Z"/>
        <path fill="none" stroke="rgb(128,128,128)" stroke-width="81" stroke-linejoin="round" d="M 8533,9250 L 8033,9250 8033,8250 9033,8250 9033,9250 8533,9250 Z"/>
       </g>
      </g>
      <g class="com.sun.star.drawing.CustomShape">
       <g id="id39">
        <rect class="BoundingBox" stroke="none" fill="none" x="992" y="3209" width="9083" height="1083"/>
        <path fill="none" stroke="rgb(128,128,128)" stroke-width="81" stroke-linejoin="round" d="M 5533,4250 L 1033,4250 1033,3250 10033,3250 10033,4250 5533,4250 Z"/>
       </g>
      </g>
      <g class="com.sun.star.drawing.CustomShape">
       <g id="id40">
        <rect class="BoundingBox" stroke="none" fill="none" x="992" y="7209" width="9083" height="1083"/>
        <path fill="none" stroke="rgb(128,128,128)" stroke-width="81" stroke-linejoin="round" d="M 5533,8250 L 1033,8250 1033,7250 10033,7250 10033,8250 5533,8250 Z"/>
       </g>
      </g>
     </g>
    </g>
   </g>
  </g>
 </g>
</svg>